<svg id="Component_180_118" data-name="Component 180 – 118" xmlns="http://www.w3.org/2000/svg" width="48" height="48" viewBox="0 0 48 48">
  <rect id="Rectangle_6059" data-name="Rectangle 6059" width="48" height="48" rx="24" fill="#fff4e5"/>
  <g id="Icon_ionic-ios-notifications" data-name="Icon ionic-ios-notifications" transform="translate(8.238 9.07)">
    <path id="Path_10433" data-name="Path 10433" d="M17.993,32.063c2.187,0,3.382-1.547,3.382-3.727H14.6C14.6,30.516,15.8,32.063,17.993,32.063Z" transform="translate(-2.241 -5.619)" fill="#d6732d"/>
    <path id="Path_10434" data-name="Path 10434" d="M24.533,19.69c-.867-1.08-2.571-1.713-2.571-6.547,0-4.962-2.318-6.957-4.479-7.435-.2-.048-.349-.112-.349-.314V5.239a1.375,1.375,0,0,0-2.746,0v.154c0,.2-.146.266-.349.314C11.873,6.191,9.56,8.18,9.56,13.142c0,4.835-1.7,5.462-2.571,6.547a1.053,1.053,0,0,0,.895,1.691H23.644A1.053,1.053,0,0,0,24.533,19.69Z" transform="translate(0 0)" fill="#d6732d"/>
  </g>
</svg>
