<svg xmlns="http://www.w3.org/2000/svg" width="28" height="28" viewBox="0 0 28 28">
  <g id="Group_16221" data-name="Group 16221" transform="translate(-1178 -673)">
    <circle id="Ellipse_650" data-name="Ellipse 650" cx="14" cy="14" r="14" transform="translate(1178 673)" fill="#fff4e5"/>
    <g id="Polygon_5" data-name="Polygon 5" transform="translate(1199.495 678.19) rotate(90)" fill="none">
      <path d="M7.222,2.072a2,2,0,0,1,3.175,0l4.757,6.209A2,2,0,0,1,13.567,11.5H4.052A2,2,0,0,1,2.465,8.281Z" stroke="none"/>
      <path d="M 8.809629440307617 2.688266754150391 C 8.699028968811035 2.688266754150391 8.490089416503906 2.718806266784668 8.333369255065918 2.92332649230957 L 3.575869560241699 9.132146835327148 C 3.378499031066895 9.389716148376465 3.452449798583984 9.637716293334961 3.51409912109375 9.762616157531738 C 3.575749397277832 9.887526512145996 3.727619171142578 10.09706687927246 4.052129745483398 10.09706687927246 L 13.56711959838867 10.09706687927246 C 13.89163970947266 10.09706687927246 14.0435094833374 9.887526512145996 14.10515975952148 9.762616157531738 C 14.16680908203125 9.637716293334961 14.24075889587402 9.389716148376465 14.04338932037354 9.132136344909668 L 9.285889625549316 2.923336029052734 C 9.129169464111328 2.718806266784668 8.920229911804199 2.688266754150391 8.809629440307617 2.688266754150391 M 8.809629440307617 1.28826904296875 C 9.403262138366699 1.28826904296875 9.996894836425781 1.54945182800293 10.39715957641602 2.071816444396973 L 15.15465927124023 8.28062629699707 C 16.1628589630127 9.596376419067383 15.22473907470703 11.49706649780273 13.56711959838867 11.49706649780273 L 4.052129745483398 11.49706649780273 C 2.394519805908203 11.49706649780273 1.456399917602539 9.596376419067383 2.464599609375 8.28062629699707 L 7.222099304199219 2.071816444396973 C 7.622364044189453 1.54945182800293 8.215996742248535 1.28826904296875 8.809629440307617 1.28826904296875 Z" stroke="none" fill="#1e2838"/>
    </g>
  </g>
</svg>
