<svg xmlns="http://www.w3.org/2000/svg" width="20.767" height="14.277" viewBox="0 0 20.767 14.277">
  <g id="Group_16727" data-name="Group 16727" transform="translate(-397 -350)">
    <g id="Path_11174" data-name="Path 11174" transform="translate(397 350)" fill="#6e788a">
      <path d="M 19.46914482116699 2.345883131027222 L 1.297944903373718 2.345883131027222 C 0.7201049327850342 2.345883131027222 0.250004917383194 1.875783085823059 0.250004917383194 1.297943115234375 C 0.250004917383194 0.7201031446456909 0.7201049327850342 0.2500031292438507 1.297944903373718 0.2500031292438507 L 19.46914482116699 0.2500031292438507 C 20.0469856262207 0.2500031292438507 20.5170955657959 0.7201031446456909 20.5170955657959 1.297943115234375 C 20.5170955657959 1.875783085823059 20.0469856262207 2.345883131027222 19.46914482116699 2.345883131027222 Z" stroke="none"/>
      <path d="M 1.297945022583008 0.5000030994415283 C 0.8579540252685547 0.5000030994415283 0.4999942779541016 0.8579530715942383 0.4999942779541016 1.297943115234375 C 0.4999942779541016 1.737933158874512 0.8579540252685547 2.095883131027222 1.297945022583008 2.095883131027222 L 19.46914482116699 2.095883131027222 C 19.90913581848145 2.095883131027222 20.2670841217041 1.737933158874512 20.2670841217041 1.297943115234375 C 20.2670841217041 0.8579530715942383 19.90913581848145 0.5000030994415283 19.46914482116699 0.5000030994415283 L 1.297945022583008 0.5000030994415283 M 1.297945022583008 3.099441528320312e-06 L 19.46914482116699 3.099441528320312e-06 C 20.18598556518555 3.099441528320312e-06 20.7670841217041 0.5811131000518799 20.7670841217041 1.297943115234375 C 20.7670841217041 2.01477313041687 20.18598556518555 2.595883131027222 19.46914482116699 2.595883131027222 L 1.297945022583008 2.595883131027222 C 0.5811042785644531 2.595883131027222 -5.7220458984375e-06 2.01477313041687 -5.7220458984375e-06 1.297943115234375 C -5.7220458984375e-06 0.5811131000518799 0.5811042785644531 3.099441528320312e-06 1.297945022583008 3.099441528320312e-06 Z" stroke="none" fill="#f1f1f1"/>
    </g>
    <g id="Path_11175" data-name="Path 11175" transform="translate(397 353.894)" fill="#6e788a">
      <path d="M 11.68148517608643 2.345883131027222 L 1.297945618629456 2.345883131027222 C 0.7201055884361267 2.345883131027222 0.2499955743551254 1.875783085823059 0.2499955743551254 1.297943115234375 C 0.2499955743551254 0.7201031446456909 0.7201055884361267 0.2500031292438507 1.297945618629456 0.2500031292438507 L 11.68148517608643 0.2500031292438507 C 12.25932598114014 0.2500031292438507 12.72943592071533 0.7201031446456909 12.72943592071533 1.297943115234375 C 12.72943592071533 1.875783085823059 12.25932598114014 2.345883131027222 11.68148517608643 2.345883131027222 Z" stroke="none"/>
      <path d="M 1.297945976257324 0.5000030994415283 C 0.8579559326171875 0.5000030994415283 0.499995231628418 0.8579530715942383 0.499995231628418 1.297943115234375 C 0.499995231628418 1.737933158874512 0.8579559326171875 2.095883131027222 1.297945976257324 2.095883131027222 L 11.68148517608643 2.095883131027222 C 12.12147521972656 2.095883131027222 12.47943592071533 1.737933158874512 12.47943592071533 1.297943115234375 C 12.47943592071533 0.8579530715942383 12.12147521972656 0.5000030994415283 11.68148517608643 0.5000030994415283 L 1.297945976257324 0.5000030994415283 M 1.297945976257324 3.099441528320312e-06 L 11.68148517608643 3.099441528320312e-06 C 12.39832592010498 3.099441528320312e-06 12.97943592071533 0.5811131000518799 12.97943592071533 1.297943115234375 C 12.97943592071533 2.01477313041687 12.39832592010498 2.595883131027222 11.68148517608643 2.595883131027222 L 1.297945976257324 2.595883131027222 C 0.5811052322387695 2.595883131027222 -4.76837158203125e-06 2.01477313041687 -4.76837158203125e-06 1.297943115234375 C -4.76837158203125e-06 0.5811131000518799 0.5811052322387695 3.099441528320312e-06 1.297945976257324 3.099441528320312e-06 Z" stroke="none" fill="#f1f1f1"/>
    </g>
    <g id="Path_11176" data-name="Path 11176" transform="translate(397 357.788)" fill="#6e788a">
      <path d="M 19.46914482116699 2.345883131027222 L 1.297944903373718 2.345883131027222 C 0.7201049327850342 2.345883131027222 0.250004917383194 1.875783085823059 0.250004917383194 1.297943115234375 C 0.250004917383194 0.7201031446456909 0.7201049327850342 0.2500031292438507 1.297944903373718 0.2500031292438507 L 19.46914482116699 0.2500031292438507 C 20.0469856262207 0.2500031292438507 20.5170955657959 0.7201031446456909 20.5170955657959 1.297943115234375 C 20.5170955657959 1.875783085823059 20.0469856262207 2.345883131027222 19.46914482116699 2.345883131027222 Z" stroke="none"/>
      <path d="M 1.297945022583008 0.5000030994415283 C 0.8579540252685547 0.5000030994415283 0.4999942779541016 0.8579530715942383 0.4999942779541016 1.297943115234375 C 0.4999942779541016 1.737933158874512 0.8579540252685547 2.095883131027222 1.297945022583008 2.095883131027222 L 19.46914482116699 2.095883131027222 C 19.90913581848145 2.095883131027222 20.2670841217041 1.737933158874512 20.2670841217041 1.297943115234375 C 20.2670841217041 0.8579530715942383 19.90913581848145 0.5000030994415283 19.46914482116699 0.5000030994415283 L 1.297945022583008 0.5000030994415283 M 1.297945022583008 3.099441528320312e-06 L 19.46914482116699 3.099441528320312e-06 C 20.18598556518555 3.099441528320312e-06 20.7670841217041 0.5811131000518799 20.7670841217041 1.297943115234375 C 20.7670841217041 2.01477313041687 20.18598556518555 2.595883131027222 19.46914482116699 2.595883131027222 L 1.297945022583008 2.595883131027222 C 0.5811042785644531 2.595883131027222 -5.7220458984375e-06 2.01477313041687 -5.7220458984375e-06 1.297943115234375 C -5.7220458984375e-06 0.5811131000518799 0.5811042785644531 3.099441528320312e-06 1.297945022583008 3.099441528320312e-06 Z" stroke="none" fill="#f1f1f1"/>
    </g>
    <g id="Path_11177" data-name="Path 11177" transform="translate(397 361.682)" fill="#6e788a">
      <path d="M 11.68148517608643 2.345883131027222 L 1.297945618629456 2.345883131027222 C 0.7201055884361267 2.345883131027222 0.2499955743551254 1.875783085823059 0.2499955743551254 1.297943115234375 C 0.2499955743551254 0.7201031446456909 0.7201055884361267 0.2500031292438507 1.297945618629456 0.2500031292438507 L 11.68148517608643 0.2500031292438507 C 12.25932598114014 0.2500031292438507 12.72943592071533 0.7201031446456909 12.72943592071533 1.297943115234375 C 12.72943592071533 1.875783085823059 12.25932598114014 2.345883131027222 11.68148517608643 2.345883131027222 Z" stroke="none"/>
      <path d="M 1.297945976257324 0.5000030994415283 C 0.8579559326171875 0.5000030994415283 0.499995231628418 0.8579530715942383 0.499995231628418 1.297943115234375 C 0.499995231628418 1.737933158874512 0.8579559326171875 2.095883131027222 1.297945976257324 2.095883131027222 L 11.68148517608643 2.095883131027222 C 12.12147521972656 2.095883131027222 12.47943592071533 1.737933158874512 12.47943592071533 1.297943115234375 C 12.47943592071533 0.8579530715942383 12.12147521972656 0.5000030994415283 11.68148517608643 0.5000030994415283 L 1.297945976257324 0.5000030994415283 M 1.297945976257324 3.099441528320312e-06 L 11.68148517608643 3.099441528320312e-06 C 12.39832592010498 3.099441528320312e-06 12.97943592071533 0.5811131000518799 12.97943592071533 1.297943115234375 C 12.97943592071533 2.01477313041687 12.39832592010498 2.595883131027222 11.68148517608643 2.595883131027222 L 1.297945976257324 2.595883131027222 C 0.5811052322387695 2.595883131027222 -4.76837158203125e-06 2.01477313041687 -4.76837158203125e-06 1.297943115234375 C -4.76837158203125e-06 0.5811131000518799 0.5811052322387695 3.099441528320312e-06 1.297945976257324 3.099441528320312e-06 Z" stroke="none" fill="#f1f1f1"/>
    </g>
  </g>
</svg>
