<svg xmlns="http://www.w3.org/2000/svg" width="19.296" height="19.296" viewBox="0 0 19.296 19.296">
  <g id="Group_16673" data-name="Group 16673" transform="translate(-418.75 -399.75)">
    <path id="Path_10951" data-name="Path 10951" d="M16.887,18.8H4.846c-.015-.009-.029-.025-.045-.028a2.263,2.263,0,0,1-1.872-2.321c.023-3.45.008-6.9.008-10.349V5.874c-.689,0-1.356-.014-2.021,0A.827.827,0,0,1,0,5.286V1.909a.7.7,0,0,0,.035-.1A2.047,2.047,0,0,1,.946.409,6.293,6.293,0,0,1,1.909,0H13.95c.015.009.029.025.046.027a2.259,2.259,0,0,1,1.871,2.322c-.021,3.933-.008,7.866-.008,11.8v.243c.69,0,1.356.014,2.021,0a.826.826,0,0,1,.916.592v1.909c-.013.039-.029.077-.038.117A2.2,2.2,0,0,1,17.3,18.676c-.135.05-.278.08-.417.12m-2.5-4.405v-.2q0-5.946,0-11.892a.745.745,0,0,0-.829-.826H4.33c.026.334.072.649.072.963q.007,7.047,0,14.094a.737.737,0,1,0,1.468,0c0-.416,0-.832,0-1.248,0-.615.269-.887.878-.887h7.639ZM7.274,17.328h7.372c.642,0,1.285,0,1.927,0a.684.684,0,0,0,.72-.555,6.125,6.125,0,0,0,.009-.9H7.368l-.094,1.453M2.937,4.4V4.244c0-.661,0-1.321,0-1.982a.736.736,0,1,0-1.468,0q0,.991,0,1.982c0,.052.007.1.011.16Z" transform="translate(419 400)" fill="#6e788a" stroke="#f1f1f1" strokeWidth="0.5"/>
    <path id="Path_10954" data-name="Path 10954" d="M124.2,91.743c-1.109,0-2.218,0-3.327,0a.865.865,0,0,1-.857-.679.846.846,0,0,1,.418-.949,1.042,1.042,0,0,1,.457-.118q3.305-.011,6.611,0a.875.875,0,1,1,0,1.75c-1.1,0-2.2,0-3.305,0" transform="translate(304.2 314.342)" fill="#6e788a" stroke="#f1f1f1" strokeWidth="0.5"/>
    <path id="Path_10955" data-name="Path 10955" d="M124.2,151.752c-1.109,0-2.218,0-3.327,0a.874.874,0,0,1-.168-1.733,1.317,1.317,0,0,1,.261-.017h6.48a.88.88,0,1,1-.005,1.752H124.2" transform="translate(304.2 257.222)" fill="#6e788a" stroke="#f1f1f1" strokeWidth="0.5"/>
    <path id="Path_10956" data-name="Path 10956" d="M124.2,211.743c-1.109,0-2.218,0-3.327,0a.864.864,0,0,1-.856-.679.846.846,0,0,1,.419-.948,1.046,1.046,0,0,1,.458-.118q3.305-.011,6.611,0a.875.875,0,1,1,0,1.75c-1.1,0-2.2,0-3.305,0" transform="translate(304.202 200.119)" fill="#6e788a" stroke="#f1f1f1" strokeWidth="0.5"/>
  </g>
</svg>
