<svg xmlns="http://www.w3.org/2000/svg" width="20.767" height="19.066" viewBox="0 0 20.767 19.066">
  <g id="Group_17137" data-name="Group 17137" transform="translate(-791 -360)">
    <path id="Path_10428" data-name="Path 10428" d="M0,17.039V2.031c.012-.016.031-.03.034-.047A2.442,2.442,0,0,1,2.555,0c3.61.022,7.22.007,10.83.007,1.663,0,3.326,0,4.989,0a2.38,2.38,0,0,1,2.393,2.4q0,7.129,0,14.257a2.028,2.028,0,0,1-.024.363,2.388,2.388,0,0,1-2.449,2.035H6c-1.2,0-2.407.016-3.61-.005A2.324,2.324,0,0,1,.209,17.643a5.364,5.364,0,0,1-.209-.6M19.471,4.356H1.3V4.57q0,5.992,0,11.985a1.093,1.093,0,0,0,1.2,1.2q7.889,0,15.777,0a1.554,1.554,0,0,0,.42-.049,1.079,1.079,0,0,0,.779-1.124q0-6.013,0-12.025v-.2m0-1.319c0-.251.014-.488,0-.722a1.055,1.055,0,0,0-.407-.764,1.234,1.234,0,0,0-.819-.234l-15.7,0a2.824,2.824,0,0,0-.283.013,1.021,1.021,0,0,0-.921.836,7.839,7.839,0,0,0-.052.87Z" transform="translate(791 359.999)" fill="#6e788a"/>
    <path id="Path_10429" data-name="Path 10429" d="M51.564,135.387v-6.039H49.2c0,.2,0,.4,0,.6a.649.649,0,1,1-1.3.006q0-.618,0-1.237a.634.634,0,0,1,.674-.671q3.65,0,7.3,0a.628.628,0,0,1,.675.63c.015.446.015.892,0,1.338a.631.631,0,0,1-.659.626.652.652,0,0,1-.641-.651c-.007-.208,0-.416,0-.635H52.9v6.039c.132,0,.258,0,.384,0a.66.66,0,0,1,.677.638.638.638,0,0,1-.662.667q-1.064.015-2.129,0a.639.639,0,0,1-.669-.66.653.653,0,0,1,.688-.645c.121,0,.242,0,.376,0" transform="translate(745.694 238.898)" fill="#6e788a"/>
    <path id="Path_10430" data-name="Path 10430" d="M242.045,257.008c-.642,0-1.284,0-1.927,0a.669.669,0,0,1-.66-.5.64.64,0,0,1,.321-.722.817.817,0,0,1,.349-.082q1.906-.009,3.813,0a.645.645,0,0,1,.694.656.656.656,0,0,1-.7.65c-.629,0-1.257,0-1.886,0" transform="translate(564.535 118.158)" fill="#6e788a"/>
    <path id="Path_10431" data-name="Path 10431" d="M242.153,128.037c.635,0,1.271,0,1.906,0a.648.648,0,1,1,0,1.3q-1.917,0-3.833,0a.648.648,0,1,1,0-1.3c.642,0,1.284,0,1.927,0" transform="translate(564.432 238.902)" fill="#6e788a"/>
    <path id="Path_10432" data-name="Path 10432" d="M242.012,193.042c-.635,0-1.271.007-1.906,0a.649.649,0,0,1-.642-.9.623.623,0,0,1,.6-.406q1.947-.009,3.894,0a.643.643,0,0,1,.648.643.629.629,0,0,1-.629.656c-.655.014-1.311,0-1.967,0Z" transform="translate(564.564 178.658)" fill="#6e788a"/>
  </g>
</svg>
