<svg xmlns="http://www.w3.org/2000/svg" width="113" height="113" viewBox="0 0 113 113">
  <g id="Group_16724" data-name="Group 16724" transform="translate(-1083.817 -382.238)">
    <circle id="Ellipse_604" data-name="Ellipse 604" cx="56.5" cy="56.5" r="56.5" transform="translate(1083.817 382.238)" fill="#fc8b78" opacity="0.1"/>
    <circle id="Ellipse_603" data-name="Ellipse 603" cx="50.5" cy="50.5" r="50.5" transform="translate(1089.817 388.238)" fill="#f78d79" opacity="0.18"/>
    <circle id="Ellipse_602" data-name="Ellipse 602" cx="44.5" cy="44.5" r="44.5" transform="translate(1095.817 394.238)" fill="rgba(254,106,84,0.8)"/>
    <g id="Group_15537" data-name="Group 15537" transform="translate(1117.152 415.063)">
      <path id="Path_10944" data-name="Path 10944" d="M46.839,11.981a14.588,14.588,0,0,1-.983,2.37A5.456,5.456,0,0,1,41.168,17c-1.919.05-3.84.019-5.761.011a1.825,1.825,0,1,1,.028-3.65c1.478-.007,2.957,0,4.435,0h.6c-.581-.816-1.06-1.568-1.616-2.257A19.175,19.175,0,0,0,28.822,4.441,19.1,19.1,0,0,0,11.943,7.4,18.991,18.991,0,0,0,4.106,19.42a19.052,19.052,0,0,0,3.32,15.5A19.3,19.3,0,0,0,19.46,42.75a17.77,17.77,0,0,0,4.948.374,5,5,0,0,1,1.36.04,1.774,1.774,0,0,1,1.4,1.965,1.826,1.826,0,0,1-1.712,1.613A23,23,0,0,1,6.988,40.079a22.472,22.472,0,0,1-6.617-12.6A22.741,22.741,0,0,1,3.232,11.569a22.96,22.96,0,0,1,15.044-11C19.338.324,20.438.244,21.521.084c.118-.018.233-.056.35-.084h3.11a3.528,3.528,0,0,0,.442.091,22.565,22.565,0,0,1,6.968,1.7,23.349,23.349,0,0,1,10.51,8.62c.068.1.15.19.283.357,0-1.755-.008-3.4,0-5.045a1.812,1.812,0,0,1,1.449-1.761,1.844,1.844,0,0,1,2.018.994c.059.117.124.232.186.348Z" transform="translate(0 0)" fill="#fff"/>
      <path id="Path_10945" data-name="Path 10945" d="M136.2,69.729c0,2.392-.007,4.783.005,7.174a2.026,2.026,0,0,1-.616,1.516q-3.538,3.538-7.08,7.073a1.84,1.84,0,1,1-2.57-2.624q2.106-2.095,4.2-4.2c.7-.7,1.391-1.41,2.106-2.094a.944.944,0,0,0,.3-.759q-.014-6.695-.005-13.39a1.828,1.828,0,0,1,2.87-1.525,1.779,1.779,0,0,1,.786,1.561q-.006,3.633,0,7.266" transform="translate(-110.947 -53.622)" fill="#fff"/>
      <path id="Path_10946" data-name="Path 10946" d="M371.771,228.588a1.823,1.823,0,0,1,1.809,2.134,19.716,19.716,0,0,1-.514,2.027,1.821,1.821,0,0,1-2.246,1.2,1.768,1.768,0,0,1-1.283-2.071,17.98,17.98,0,0,1,.553-2.108,1.784,1.784,0,0,1,1.68-1.186" transform="translate(-327.178 -202.404)" fill="#fff"/>
      <path id="Path_10947" data-name="Path 10947" d="M268.576,357.573a1.877,1.877,0,0,1-1.749-1.378,1.766,1.766,0,0,1,.79-2.01,19.17,19.17,0,0,1,1.908-.962,1.809,1.809,0,0,1,2.331.84,1.79,1.79,0,0,1-.673,2.384c-.613.362-1.26.667-1.905.969a3.26,3.26,0,0,1-.7.158" transform="translate(-236.201 -312.628)" fill="#fff"/>
      <path id="Path_10948" data-name="Path 10948" d="M330.583,303.905a1.349,1.349,0,0,1,.028-.382,5.4,5.4,0,0,1,2.354-2.788,1.713,1.713,0,0,1,1.986.514,1.745,1.745,0,0,1,.192,2.081,16,16,0,0,1-1.517,1.879,1.713,1.713,0,0,1-1.988.31,1.747,1.747,0,0,1-1.055-1.613" transform="translate(-292.715 -266.159)" fill="#fff"/>
    </g>
  </g>
</svg>
