<svg xmlns="http://www.w3.org/2000/svg" width="14.04" height="16" viewBox="0 0 14.04 16">
  <g id="Group_17161" data-name="Group 17161" transform="translate(-1688 -777)">
    <path id="Path_9692" data-name="Path 9692" d="M3.728,1.88c.015-.237.022-.434.042-.63A1.356,1.356,0,0,1,5.076.014q1.951-.029,3.9,0a1.356,1.356,0,0,1,1.3,1.238c.02.2.027.393.042.628.718,0,1.433,0,2.147,0a2.252,2.252,0,0,1,.524.054,1.351,1.351,0,0,1,1.031,1.122,1.346,1.346,0,0,1-.7,1.443.426.426,0,0,0-.263.4c-.111,1.451-.235,2.9-.357,4.351q-.206,2.439-.415,4.878c-.021.248-.034.5-.079.742A1.356,1.356,0,0,1,10.9,15.992q-3.871.014-7.742,0a1.421,1.421,0,0,1-1.371-1.426q-.306-3.73-.618-7.459c-.063-.756-.119-1.513-.2-2.268a.446.446,0,0,0-.2-.292A1.429,1.429,0,0,1,.044,2.934,1.41,1.41,0,0,1,1.426,1.882c.758-.006,1.517,0,2.3,0M1.922,4.707c0,.067,0,.118,0,.168.137,1.616.278,3.232.412,4.848s.257,3.213.389,4.819a.5.5,0,0,0,.57.519q3.731,0,7.462,0a.5.5,0,0,0,.573-.516c.07-.818.13-1.638.2-2.456.115-1.388.235-2.776.35-4.165.088-1.066.173-2.132.261-3.217Zm5.1-.953h5.4a1.489,1.489,0,0,0,.28-.007.44.44,0,0,0,.4-.447.444.444,0,0,0-.4-.478,1.262,1.262,0,0,0-.249-.007H1.594a1.152,1.152,0,0,0-.28.012.442.442,0,0,0-.368.442.442.442,0,0,0,.37.472,1.3,1.3,0,0,0,.311.012h5.4m2.336-1.89c0-.17.01-.316,0-.46a.45.45,0,0,0-.486-.46Q7.018.937,5.162.945a.44.44,0,0,0-.468.444c-.014.152,0,.306,0,.475Z" transform="translate(1688 777)" fill="#5c5f65"/>
    <path id="Path_9693" data-name="Path 9693" d="M104.955,94.4q0-1.732,0-3.464a2.308,2.308,0,0,1,.015-.342.456.456,0,0,1,.907,0,2.2,2.2,0,0,1,.014.311q0,3.526,0,7.052c0,.5-.159.732-.484.72s-.452-.231-.453-.72q0-1.779,0-3.557" transform="translate(1589.602 692.441)" fill="#5c5f65"/>
    <path id="Path_9694" data-name="Path 9694" d="M61.551,98.038c-.04.147-.036.342-.13.428a.707.707,0,0,1-.485.178c-.224-.021-.337-.214-.351-.45-.08-1.267-.165-2.533-.243-3.8-.073-1.184-.138-2.368-.206-3.552a1.6,1.6,0,0,1-.007-.218.431.431,0,0,1,.437-.44.409.409,0,0,1,.463.37c.051.4.075.807.1,1.212.092,1.5.179,2.991.269,4.486.036.592.077,1.183.116,1.775l.037.009" transform="translate(1631.63 692.449)" fill="#5c5f65"/>
    <path id="Path_9695" data-name="Path 9695" d="M143.893,91.065q-.184,2.881-.367,5.762c-.028.436-.053.872-.079,1.309-.02.337-.2.54-.483.531a.474.474,0,0,1-.45-.559c.062-1.122.134-2.243.2-3.365q.114-1.838.231-3.675a3.95,3.95,0,0,1,.054-.527.418.418,0,0,1,.472-.361.431.431,0,0,1,.428.448c.008.145,0,.291,0,.437h-.011" transform="translate(1554.391 692.455)" fill="#5c5f65"/>
  </g>
</svg>
