<svg xmlns="http://www.w3.org/2000/svg" width="28" height="28" viewBox="0 0 28 28">
  <g id="Group_16219" data-name="Group 16219" transform="translate(-1186 -708)">
    <circle id="Ellipse_651" data-name="Ellipse 651" cx="14" cy="14" r="14" transform="translate(1186 708)" fill="#fff4e5"/>
    <path id="Path_11147" data-name="Path 11147" d="M10.033,2.788,12.352,1.32c.113-.071.227-.141.338-.215a1.506,1.506,0,0,1,2.323.92,1.466,1.466,0,0,1,.034.323q0,2.388,0,4.777a1.518,1.518,0,0,1-1.159,1.465,1.446,1.446,0,0,1-1.162-.2L10.191,6.78c-.043-.027-.087-.053-.147-.089,0,.055-.011.1-.011.136,0,.394,0,.789,0,1.183A1.462,1.462,0,0,1,8.488,9.467q-3.471,0-6.943,0A1.46,1.46,0,0,1,0,8.008Q0,4.732,0,1.456A1.46,1.46,0,0,1,1.549,0Q5.02,0,8.491,0a1.461,1.461,0,0,1,1.541,1.46c0,.432,0,.864,0,1.327M5,8.521H8.449c.385,0,.581-.183.581-.544q0-3.239,0-6.478c0-.37-.194-.552-.588-.552H1.593C1.2.947,1,1.129,1,1.5Q1,4.738,1,7.977c0,.36.2.544.58.544H5m9.045-3.788q0-.754,0-1.508c0-.3,0-.591,0-.887a.555.555,0,0,0-.317-.509.483.483,0,0,0-.52.087q-1.531.975-3.068,1.942a.2.2,0,0,0-.109.19q.008.68,0,1.36a.2.2,0,0,0,.111.2c.333.2.66.415.989.624q1.072.679,2.144,1.358a.429.429,0,0,0,.579-.042.6.6,0,0,0,.192-.468c0-.783,0-1.567,0-2.35" transform="translate(1192.445 717.206)" fill="#1e2838" stroke="#1e2838" strokeWidth="0.4"/>
  </g>
</svg>
