<svg xmlns="http://www.w3.org/2000/svg" width="28" height="28" viewBox="0 0 28 28">
  <g id="Group_16220" data-name="Group 16220" transform="translate(-1178 -620)">
    <circle id="Ellipse_649" data-name="Ellipse 649" cx="14" cy="14" r="14" transform="translate(1178 620)" fill="#fff4e5"/>
    <path id="Path_10257" data-name="Path 10257" d="M0,2.208a4.886,4.886,0,0,1,.166-.616A2.394,2.394,0,0,1,2.289.015C2.429,0,2.571,0,2.712,0h8.732a2.453,2.453,0,0,1,2.092,1.034A2.4,2.4,0,0,1,14,2.48c0,.378,0,.756,0,1.134,0,1.472.01,2.943,0,4.415a2.386,2.386,0,0,1-1.45,2.269,5.6,5.6,0,0,1-.69.229v.14c0,.733,0,1.467,0,2.2a.5.5,0,0,1-.442.561.527.527,0,0,1-.448-.188q-1.047-1.05-2.1-2.1c-.177-.177-.357-.352-.53-.533a.282.282,0,0,0-.226-.093c-1.868,0-3.735.006-5.6,0A2.415,2.415,0,0,1,.325,9.278a2.314,2.314,0,0,1-.3-.845A.84.84,0,0,0,0,8.332V2.208M10.838,11.73l.035-.012v-.132c0-.506,0-1.012,0-1.517a.492.492,0,0,1,.539-.533h.1a1.468,1.468,0,0,0,1.5-1.5q0-2.768,0-5.536a1.465,1.465,0,0,0-1.5-1.512Q7,.977,2.481.985A1.465,1.465,0,0,0,.983,2.5q0,2.768,0,5.536a1.606,1.606,0,0,0,.042.378A1.463,1.463,0,0,0,2.488,9.536q2.932,0,5.864,0a.671.671,0,0,1,.51.212c.551.558,1.107,1.11,1.661,1.664.106.106.21.213.315.32" transform="translate(1185 627.283)" fill="#1e2838" stroke="#1e2838" strokeWidth="0.2"/>
  </g>
</svg>
