<svg xmlns="http://www.w3.org/2000/svg" width="35.085" height="26.313" viewBox="0 0 35.085 26.313">
  <path id="Icon_awesome-image" data-name="Icon awesome-image" d="M31.8,30.813H3.289A3.289,3.289,0,0,1,0,27.524V7.789A3.289,3.289,0,0,1,3.289,4.5H31.8a3.289,3.289,0,0,1,3.289,3.289V27.524A3.289,3.289,0,0,1,31.8,30.813ZM7.675,8.337a3.837,3.837,0,1,0,3.837,3.837A3.837,3.837,0,0,0,7.675,8.337ZM4.386,26.428H30.7V18.753l-6-6a.822.822,0,0,0-1.163,0l-9.286,9.286-3.8-3.8a.822.822,0,0,0-1.163,0l-4.9,4.9Z" transform="translate(0 -4.5)" fill="#575555" opacity="0.545"/>
</svg>
