<svg xmlns="http://www.w3.org/2000/svg" width="49.017" height="34.616" viewBox="0 0 49.017 34.616">
  <path id="Path_10261" data-name="Path 10261" d="M24.184,0q9.752,0,19.5,0A4.773,4.773,0,0,1,46.4.675a4.152,4.152,0,0,1,1.977,3.341c.033.486.043.975.043,1.463q0,11.8,0,23.6a6.445,6.445,0,0,1-.229,1.961,4.217,4.217,0,0,1-3.741,2.932c-.471.028-.944.044-1.416.044q-19.149,0-38.3,0a4.741,4.741,0,0,1-2.983-.862,4.126,4.126,0,0,1-1.7-3.106C.012,29.539,0,29.026,0,28.515Q0,16.622,0,4.729A4.815,4.815,0,0,1,.57,2.2,4.154,4.154,0,0,1,4,.047C4.451.012,4.909,0,5.366,0q9.41,0,18.819,0M4.848,2.846c.054.068.076.1.1.128l5.387,5.336q4.27,4.232,8.54,8.466c.816.81,1.6,1.652,2.45,2.427a4.228,4.228,0,0,0,5.65.107c.294-.248.559-.531.833-.8Q35.585,10.8,43.359,3.085c.066-.066.12-.144.2-.238Zm38.728,28.32c-.093-.1-.152-.17-.216-.233-.691-.679-1.387-1.353-2.075-2.035q-4.912-4.862-9.818-9.73c-.127-.126-.2-.125-.326,0-.335.344-.678.68-1.024,1.014a20.293,20.293,0,0,1-1.494,1.409,6.922,6.922,0,0,1-5.493,1.468,7.176,7.176,0,0,1-4.055-2.108c-.6-.593-1.2-1.186-1.791-1.785-.125-.127-.206-.146-.338,0-.249.273-.52.526-.783.786Q10.741,25.322,5.317,30.69c-.147.146-.309.277-.464.415l.047.061ZM2.853,4.8V29.154l.085.069L14.983,16.954,2.853,4.8m42.716,24.4V4.791L33.328,17.018,45.569,29.194" transform="translate(0.299 0.3)" fill="#d6732d" stroke="#d6732d" strokeWidth="0.6"/>
</svg>
