<svg xmlns="http://www.w3.org/2000/svg" width="67.828" height="67.804" viewBox="0 0 67.828 67.804">
  <path id="Path_10241" data-name="Path 10241" d="M0,36.142v-4.5c.1-.828.19-1.658.311-2.484a32.717,32.717,0,0,1,7.91-17.378C16.333,2.647,26.545-1.167,38.643.31A31.357,31.357,0,0,1,55.977,8.146c9.675,8.611,13.452,19.418,11.236,32.145A32.5,32.5,0,0,1,54.556,60.808a32.508,32.508,0,0,1-14.73,6.474c-1.212.2-2.434.35-3.652.523h-4.5c-.191-.042-.38-.1-.573-.125-1.2-.159-2.415-.241-3.6-.477a33.495,33.495,0,0,1-20.38-12.53A32.519,32.519,0,0,1,.523,39.795C.318,38.582.173,37.36,0,36.142m25.821,1.064a14.3,14.3,0,1,1,18.208-21.9,13.733,13.733,0,0,1,4.164,10.059,14.181,14.181,0,0,1-6.21,11.81,23.635,23.635,0,0,1,14.566,16.17A29.89,29.89,0,1,0,4.813,26.923,29.978,29.978,0,0,0,11.279,53.41a23.616,23.616,0,0,1,14.542-16.2m8.84,26.615c.9-.091,2.6-.17,4.274-.45a29.268,29.268,0,0,0,13.8-6.262.918.918,0,0,0,.274-.7,16.169,16.169,0,0,0-1.581-5.425c-3.239-6.57-8.52-10.342-15.794-11.1a18.255,18.255,0,0,0-13.021,3.606,18.822,18.822,0,0,0-7.775,12.878.962.962,0,0,0,.287.755c5.472,4.393,11.733,6.6,19.536,6.7m9.551-38.444A10.292,10.292,0,1,0,33.939,35.644,10.354,10.354,0,0,0,44.212,25.378" transform="translate(0 -0.001)" fill="#d6732d"/>
</svg>
