<svg xmlns="http://www.w3.org/2000/svg" width="24.343" height="20" viewBox="0 0 24.343 20">
  <path id="Path_10378" data-name="Path 10378" d="M72.9,4.9c-.162.155-.251.237-.337.323q-2.847,2.846-5.691,5.694a1.462,1.462,0,0,1-1.419.482,1.424,1.424,0,0,1-.8-2.295,3.618,3.618,0,0,1,.254-.267L73.155.586A1.458,1.458,0,0,1,75.486.578Q79.649,4.741,83.813,8.9a1.449,1.449,0,0,1,.471,1.424,1.416,1.416,0,0,1-2.374.714c-.625-.591-1.222-1.213-1.831-1.822q-2-2-4-4.013a1.315,1.315,0,0,1-.175-.323l-.15.107v.386q0,8.689,0,17.379a1.428,1.428,0,1,1-2.842.281c-.011-.156-.008-.313-.008-.469q0-8.589,0-17.177Z" transform="translate(0 84.324) rotate(-90)" fill="#1e2838"/>
</svg>
