<svg xmlns="http://www.w3.org/2000/svg" width="66.532" height="53.96" viewBox="0 0 66.532 53.96">
  <path id="Path_11221" data-name="Path 11221" d="M51.693,42.088a12.167,12.167,0,0,0,9.294-4.241,13.3,13.3,0,0,0,3.88-9.114,13.321,13.321,0,0,0-3.429-8.753q-3.429-4.061-6.677-4.061a19.659,19.659,0,0,1,3.7-8.482,72.739,72.739,0,0,1,8.391-8.3L61.8-11.872A47.141,47.141,0,0,0,44.745,4.821q-6.767,10.918-6.767,21.2a16.84,16.84,0,0,0,3.97,11.55A12.488,12.488,0,0,0,51.693,42.088Zm-38.019,0a12.443,12.443,0,0,0,9.384-4.241,13.151,13.151,0,0,0,3.97-9.114A13.525,13.525,0,0,0,23.69,19.98q-3.339-4.061-6.767-4.061a18.959,18.959,0,0,1,3.7-8.392A82.353,82.353,0,0,1,29.194-.864L23.96-11.872A47.632,47.632,0,0,0,7.087,4.821Q.32,15.739.32,26.026A17.085,17.085,0,0,0,4.2,37.576,12.043,12.043,0,0,0,13.674,42.088Z" transform="translate(-0.32 11.872)" fill="#354660"/>
</svg>
