<svg xmlns="http://www.w3.org/2000/svg" xmlns:xlink="http://www.w3.org/1999/xlink" width="48" height="48" viewBox="0 0 48 48">
  <defs>
    <clipPath id="clip-path">
      <rect id="Rectangle_5601" data-name="Rectangle 5601" width="32" height="27.166" fill="#fff"/>
    </clipPath>
    <clipPath id="clip-Folder">
      <rect width="48" height="48"/>
    </clipPath>
  </defs>
  <g id="Folder" clip-path="url(#clip-Folder)">
    <g id="Group_13028" data-name="Group 13028" transform="translate(8 11)" clip-path="url(#clip-path)">
      <path id="Path_6963" data-name="Path 6963" d="M0,3.333A4.221,4.221,0,0,1,1.409.929a3.765,3.765,0,0,1,2.4-.913C6.207,0,8.6-.008,11,.018a3.819,3.819,0,0,1,2.779,1.237c.966,1.006,1.934,2.01,2.881,3.033a1.957,1.957,0,0,0,1.547.657q4.933-.021,9.867,0A3.959,3.959,0,0,1,31.9,7.99a3.551,3.551,0,0,1,.1.834q0,7.213,0,14.426a3.96,3.96,0,0,1-3.8,3.891c-.177.006-.354,0-.531,0-7.733,0-15.467-.037-23.2.022A4.214,4.214,0,0,1,0,23.818ZM16,24.672h8.023c1.29,0,2.581.005,3.871,0a1.511,1.511,0,0,0,1.632-1.64q0-6.993,0-13.986a1.669,1.669,0,0,0-.116-.7,1.544,1.544,0,0,0-1.558-.929c-3.257,0-6.514-.008-9.772,0a4.122,4.122,0,0,1-3.145-1.338c-.959-1.012-1.927-2.016-2.879-3.035a1.616,1.616,0,0,0-1.21-.559c-2.289-.008-4.579-.017-6.868,0a1.482,1.482,0,0,0-1.53,1.581c0,.416,0,.833,0,1.249q0,8.819,0,17.639A1.757,1.757,0,0,0,2.7,24a1.631,1.631,0,0,0,1.464.674q5.916,0,11.832,0" transform="translate(0 0)" fill="#fff"/>
    </g>
  </g>
</svg>
