<svg xmlns="http://www.w3.org/2000/svg" xmlns:xlink="http://www.w3.org/1999/xlink" width="48" height="48" viewBox="0 0 48 48">
  <defs>
    <clipPath id="clip-home">
      <rect width="48" height="48"/>
    </clipPath>
  </defs>
  <g id="home" clip-path="url(#clip-home)">
    <path id="Union_11" data-name="Union 11" d="M19.509,28.668a1.25,1.25,0,0,1-1.383-1.4c.019-1.769.016-3.57.012-5.311q0-.994,0-1.987a3.509,3.509,0,0,0-.09-.9A2.055,2.055,0,0,0,15.939,17.5c-.078,0-.158,0-.238.009a2.1,2.1,0,0,0-1.8,1.907c-.024.255-.037.5-.037.738q0,2.338,0,4.676V27.3a1.192,1.192,0,0,1-1.348,1.361c-1.3,0-2.6,0-3.871,0-1.287,0-2.575,0-3.83,0a1.216,1.216,0,0,1-1.39-1.4q0-6.673,0-13.344a1.21,1.21,0,0,1,.8-1.3,1.137,1.137,0,0,1,.355-.057,1.112,1.112,0,0,1,1.114,1.029c.009.116.008.226.007.335v12.3c0,.044,0,.091,0,.131H5.83q2.806,0,5.613,0h.139c0-.046,0-.1,0-.153q0-1.038,0-2.076c0-1.482,0-3.014,0-4.521a4.415,4.415,0,0,1,3.532-4.324A4.314,4.314,0,0,1,16,15.188a4.414,4.414,0,0,1,2.886,1.089,4.33,4.33,0,0,1,1.478,2.745,7.014,7.014,0,0,1,.049.861v6.349c0,.041,0,.083,0,.121h2.973c.77,0,1.785,0,2.814.008h.008a.762.762,0,0,0,.087,0,.741.741,0,0,0,.005-.1C26.3,22.968,26.3,19.627,26.3,16.4V13.954c0-.105,0-.215.005-.326a1.12,1.12,0,0,1,.976-1.059,1,1,0,0,1,.15-.012,1.158,1.158,0,0,1,1.063.753,1.767,1.767,0,0,1,.085.647V27.239c0,.985-.439,1.424-1.423,1.426H22.43q-1.458,0-2.915,0Zm0-.292h0ZM30.045,12.837,22.726,7.476,19.157,4.861l-.886-.648c-.726-.529-1.474-1.076-2.207-1.622A.315.315,0,0,0,16,2.553a.4.4,0,0,0-.066.041C11.974,5.5,7.943,8.453,4.044,11.307l-1.99,1.458c-.051.037-.1.075-.153.111a1.448,1.448,0,0,1-.824.3,1.174,1.174,0,0,1-1.043-.74L0,12.371v-.7l.035-.065a1.955,1.955,0,0,1,.586-.626Q5.784,7.2,10.946,3.424L15.2.311a1.191,1.191,0,0,1,1.6,0l5.606,4.1,9,6.585a1.864,1.864,0,0,1,.557.606L32,11.67v.7l-.034.064a1.172,1.172,0,0,1-1.037.742A1.528,1.528,0,0,1,30.045,12.837Z" transform="translate(8 10)" fill="#fff"/>
  </g>
</svg>
