<svg xmlns="http://www.w3.org/2000/svg" xmlns:xlink="http://www.w3.org/1999/xlink" width="48" height="48" viewBox="0 0 48 48">
  <defs>
    <clipPath id="clip-Library">
      <rect width="48" height="48"/>
    </clipPath>
  </defs>
  <g id="Library" clip-path="url(#clip-Library)">
    <path id="Path_6896" data-name="Path 6896" d="M.047,25.873A4.776,4.776,0,0,0,4.933,30c7.3,0,13.887,0,20.137,0A4.784,4.784,0,0,0,30,25.087C30,18.5,30,11.805,30,5.33V4.91A4.786,4.786,0,0,0,25.067,0C18.3,0,11.41,0,4.93,0H4.872a4.421,4.421,0,0,0-.727.04A4.789,4.789,0,0,0,0,4.952q0,3.517,0,7.034v5.16q0,3.932,0,7.864v.052a4.927,4.927,0,0,0,.044.811M15.771,2.9l1.563,0h4.392v.279c0,.841,0,1.682,0,2.5v2.96q0,1.332,0,2.665v.449l-.772-.384c-.562-.279-1.143-.567-1.709-.86a1.364,1.364,0,0,0-1.356.006c-.588.307-1.192.606-1.777.9l-.693.343V8.779q0-2.8,0-5.6V2.9ZM2.9,5.03A1.933,1.933,0,0,1,5.04,2.895h.4c.233,0,.474,0,.709,0h6.8V5.35q0,4.145,0,8.289a1.248,1.248,0,0,0,1,1.319,1.369,1.369,0,0,0,.942-.177l.744-.371c.893-.445,1.816-.9,2.722-1.367a.42.42,0,0,1,.439,0c.915.466,1.848.932,2.751,1.382l.714.356a1.584,1.584,0,0,0,.7.2,1.041,1.041,0,0,0,.215-.023,1.232,1.232,0,0,0,1.015-1.254c0-.785,0-1.592,0-2.3V2.895h.782a1.936,1.936,0,0,1,2.131,2.15q0,1.731,0,3.462v5.6q0,5.379,0,10.758a1.971,1.971,0,0,1-2.243,2.24H5.121A1.952,1.952,0,0,1,2.9,24.89q0-3.547,0-7.093V12q0-3.486,0-6.972" transform="translate(9 9)" fill="#fff"/>
  </g>
</svg>
