<svg xmlns="http://www.w3.org/2000/svg" width="19.294" height="19.294" viewBox="0 0 19.294 19.294">
  <g id="Group_13284" data-name="Group 13284" transform="translate(-790.055 -349.055)">
    <g id="Ellipse_595" data-name="Ellipse 595" transform="translate(790.055 349.055)" fill="none" stroke="#1e2838" strokeWidth="1.2">
      <ellipse cx="9.647" cy="9.647" rx="9.647" ry="9.647" stroke="none"/>
      <ellipse cx="9.647" cy="9.647" rx="9.047" ry="9.047" fill="none"/>
    </g>
    <g id="Polygon_2" data-name="Polygon 2" transform="translate(804.439 353.416) rotate(90)" fill="none">
      <path d="M4.75,1.11a1,1,0,0,1,1.617,0L9.96,6.044a1,1,0,0,1-.808,1.589H1.965a1,1,0,0,1-.808-1.589Z" stroke="none"/>
      <path d="M 5.558255672454834 2.038451671600342 L 2.358352661132812 6.432529449462891 L 8.758163452148438 6.432529449462891 L 5.558255672454834 2.038451671600342 M 5.558254241943359 0.6987171173095703 C 5.862591743469238 0.6987171173095703 6.166929244995117 0.8358249664306641 6.366624355316162 1.110039710998535 L 9.95958423614502 6.043849945068359 C 10.44087409973145 6.704749584197998 9.968784332275391 7.632529735565186 9.151214599609375 7.632529735565186 L 1.965293884277344 7.632529735565186 C 1.147714614868164 7.632529735565186 0.6756343841552734 6.704749584197998 1.156924247741699 6.043849945068359 L 4.749884128570557 1.110039710998535 C 4.949579238891602 0.8358249664306641 5.25391674041748 0.6987171173095703 5.558254241943359 0.6987171173095703 Z" stroke="none" fill="#1e2838"/>
    </g>
  </g>
</svg>
