<svg xmlns="http://www.w3.org/2000/svg" width="16" height="15.966" viewBox="0 0 16 15.966">
  <g id="Group_17156" data-name="Group 17156" transform="translate(-1853 -452)">
    <path id="Path_11222" data-name="Path 11222" d="M.138.954.2.829C.3.914.331.808.379.762A4,4,0,0,1,.749.4.221.221,0,0,0,.865.172l.1-.043c.035.034.091.1.1.1.1-.057.2-.129.3-.2l.1-.022.11.125L1.7.005C1.735,0,1.774,0,1.812,0H12.025c.039,0,.077,0,.116.005a1.513,1.513,0,0,0,.149.128,1.484,1.484,0,0,1,.236.139Q14.1,1.839,15.667,3.416a1.747,1.747,0,0,1,.167.294.662.662,0,0,0,.125.115c0,.039.005.077.005.116q0,5.106,0,10.213c0,.039,0,.077-.005.116l-.127.107.124.126-.031.1a.3.3,0,0,0-.124.433l-.032.066a.6.6,0,0,0-.164.079c-.135.127-.265.259-.387.4a.616.616,0,0,0-.075.181l-.11.043c-.139-.124-.287-.069-.334.124l-.2.032-.11-.125-.123.127c-.044,0-.088.005-.132.005H1.829c-.044,0-.088,0-.132-.005l-.107-.127-.126.124h-.1a.324.324,0,0,0-.4-.2c-.019.012-.024.046-.036.069L.9,15.8c.006-.179-.157-.236-.255-.329-.151-.144-.25-.355-.479-.407L.141,15.04c.03-.05.1-.11.084-.148-.035-.119-.06-.258-.217-.29v-.1l.125-.11-.127-.123C0,14.225,0,14.181,0,14.137Q0,7.983,0,1.828C0,1.784,0,1.74.006,1.7l.127-.107L.008,1.463v-.1a.373.373,0,0,0,.22-.318C.221,1.01.169.984.138.954m4.053,9.717c-.031-.115-.1-.159-.2-.09a1.494,1.494,0,0,0-.274.205c-.1.106-.089.231.007.29v3.817h8.5V11.076c.115,0,.155-.057.094-.157a1.359,1.359,0,0,0-.211-.288c-.133-.124-.251-.1-.323.04-.113-.009-.225-.026-.338-.027q-3.47,0-6.94,0c-.1,0-.2.017-.305.027M1.5,14.907H2.661c0-.081,0-.141,0-.2q0-1.715.006-3.43l.127-.107-.125-.126v-.1a.373.373,0,0,0,.22-.318c-.007-.035-.058-.061-.089-.091l.06-.125c.1.085.133-.021.18-.067a4.012,4.012,0,0,1,.37-.363.221.221,0,0,0,.116-.227l.1-.043c.03.034.073.1.088.1.115-.045.278-.023.311-.2l.1-.022.109.125.123-.127c.061,0,.121-.005.182-.005h6.887c.061,0,.121,0,.182.005l.107.127.126-.124.236.057c-.061.125.058.128.117.154s.145.035.146-.079l.17.092c.014.052.013.117.045.153a5.042,5.042,0,0,0,.364.368,1.031,1.031,0,0,0,.191.112l.056.1c-.03.035-.094.084-.086.1.048.106.03.259.187.3l.031.1-.125.11.127.123V14.9h1.168c0,.138.1.131.166.077a2.33,2.33,0,0,0,.332-.326c.077-.091.044-.173-.07-.216a.268.268,0,0,0,0-.033q0-5.172,0-10.344a.221.221,0,0,0-.06-.14q-1.39-1.4-2.785-2.787a.205.205,0,0,0-.123-.062c-.248-.006-.5,0-.754,0v.178c0,.926,0,1.852,0,2.777a2.6,2.6,0,0,1-.035.474,1.023,1.023,0,0,1-.954.824c-1.491.012-2.982.005-4.473,0A1.087,1.087,0,0,1,4.792,4.4q0-1.572,0-3.143V1.089c-.018-.016-.022-.022-.026-.022-1.025,0-2.051-.01-3.076,0a.578.578,0,0,0-.627.663q.011,6.236,0,12.473c0,.088,0,.177,0,.265-.13,0-.119.1-.074.156a2.505,2.505,0,0,0,.354.355c.055.045.154.058.157-.073M10.108,1.074H5.864V4.247h4.244Z" transform="translate(1853 452)" fill="#030404"/>
    <path id="Path_11225" data-name="Path 11225" d="M3.655,339.116c.251.057.36.288.525.446.107.1.286.165.28.36a1.49,1.49,0,0,1-.8-.806" transform="translate(1849.523 127.866)" fill="#030404"/>
    <path id="Path_11226" data-name="Path 11226" d="M5.2,3.88a.242.242,0,0,1-.127.248,4.389,4.389,0,0,0-.406.4c-.052.05-.089.166-.2.073A1.487,1.487,0,0,1,5.2,3.88" transform="translate(1848.749 448.309)" fill="#030404"/>
    <path id="Path_11227" data-name="Path 11227" d="M340.925,340.6a.675.675,0,0,1,.082-.2c.133-.152.276-.3.423-.436a.662.662,0,0,1,.179-.087l-.225.36-.46.361" transform="translate(1527.142 127.138)" fill="#030404"/>
    <path id="Path_11228" data-name="Path 11228" d="M350.375,335.948l.225-.36.035-.072.1-.148c.156.107.145.265-.022.407-.049.042-.078.116-.132.143a.667.667,0,0,1-.209.03" transform="translate(1518.152 131.431)" fill="#fff"/>
    <path id="Path_11229" data-name="Path 11229" d="M20.964,354.265c.013-.026.018-.063.039-.076a.355.355,0,0,1,.435.22l-.474-.144" transform="translate(1833.057 113.548)" fill="#030404"/>
    <path id="Path_11230" data-name="Path 11230" d="M.175,328.65c.172.035.2.188.238.318.012.041-.059.107-.092.162l-.145-.48" transform="translate(1852.834 137.822)" fill="#030404"/>
    <path id="Path_11231" data-name="Path 11231" d="M.318,21.492c.034.033.09.061.1.1a.409.409,0,0,1-.241.349l.143-.448" transform="translate(1852.834 431.554)" fill="#030404"/>
    <path id="Path_11232" data-name="Path 11232" d="M354.741,328.978l-.1.148a.33.33,0,0,1,.136-.475l-.033.327" transform="translate(1514.148 137.821)" fill="#030404"/>
    <path id="Path_11233" data-name="Path 11233" d="M22.126.662c-.107.074-.211.152-.324.215-.014.008-.074-.068-.113-.105l.437-.11" transform="translate(1832.367 451.37)" fill="#030404"/>
    <path id="Path_11234" data-name="Path 11234" d="M330.941,354.381c.051-.211.214-.272.366-.136l-.366.136" transform="translate(1536.64 113.542)" fill="#030404"/>
    <path id="Path_11235" data-name="Path 11235" d="M.124,321.164l.139.135-.136.12q0-.128,0-.255" transform="translate(1852.882 144.944)" fill="#030404"/>
    <path id="Path_11236" data-name="Path 11236" d="M356.549,321.419l-.136-.138.139-.118q0,.128,0,.255" transform="translate(1512.407 144.944)" fill="#030404"/>
    <path id="Path_11237" data-name="Path 11237" d="M.126,32.938l.136.138-.139.118q0-.128,0-.255" transform="translate(1852.883 420.665)" fill="#030404"/>
    <path id="Path_11238" data-name="Path 11238" d="M33.2.124l-.135.139-.12-.136.255,0" transform="translate(1821.66 451.882)" fill="#030404"/>
    <path id="Path_11239" data-name="Path 11239" d="M32.943,356.5l.138-.136.118.139-.255,0" transform="translate(1821.66 111.454)" fill="#030404"/>
    <path id="Path_11240" data-name="Path 11240" d="M321.207,356.5l.135-.139.12.136-.255,0" transform="translate(1545.9 111.457)" fill="#030404"/>
    <path id="Path_11242" data-name="Path 11242" d="M64.37,220.209a1.077,1.077,0,0,1,.4-.509l.077-.1.255-.11a.242.242,0,0,1-.127.248,4.381,4.381,0,0,0-.406.4c-.052.05-.089.166-.2.073" transform="translate(1791.478 242.22)" fill="#030404"/>
    <path id="Path_11243" data-name="Path 11243" d="M325.67,325.366a.674.674,0,0,0,.469-.508c.126.046.162.136.077.236a2.548,2.548,0,0,1-.363.357c-.075.059-.178.066-.182-.084" transform="translate(1541.654 141.43)" fill="#030404"/>
    <path id="Path_11244" data-name="Path 11244" d="M265.5,237.946a.573.573,0,0,0-.444-.334c.079-.154.209-.179.354-.044a1.486,1.486,0,0,1,.231.315c.067.109.023.169-.1.172l-.009-.071-.029-.037" transform="translate(1599.684 225.037)" fill="#030404"/>
    <path id="Path_11245" data-name="Path 11245" d="M281.59,220.821a1.483,1.483,0,0,1,.658.694,1.129,1.129,0,0,1-.21-.123,5.522,5.522,0,0,1-.4-.4c-.035-.039-.034-.111-.05-.168" transform="translate(1583.875 240.952)" fill="#030404"/>
    <path id="Path_11246" data-name="Path 11246" d="M82.576,237.549c-.285.017-.4.225-.516.443-.106-.065-.119-.2-.008-.317a1.634,1.634,0,0,1,.3-.225c.117-.076.191-.027.224.1" transform="translate(1774.656 225.1)" fill="#030404"/>
    <path id="Path_11247" data-name="Path 11247" d="M21.6,325.657a.687.687,0,0,0,.479.48c0,.143-.111.129-.172.08a2.744,2.744,0,0,1-.388-.388c-.05-.061-.061-.168.081-.171" transform="translate(1832.558 140.67)" fill="#030404"/>
    <path id="Path_11248" data-name="Path 11248" d="M60.074,237.532l.143-.449c.034.033.09.061.1.1a.408.408,0,0,1-.241.349" transform="translate(1795.85 225.424)" fill="#030404"/>
    <path id="Path_11249" data-name="Path 11249" d="M81.589,216.379l.437-.11c-.036.191-.214.167-.341.216-.016.006-.063-.069-.1-.106" transform="translate(1775.028 245.329)" fill="#030404"/>
    <path id="Path_11250" data-name="Path 11250" d="M294.5,237.356l.11.435c-.171-.041-.152-.208-.2-.324-.009-.019.061-.073.094-.111" transform="translate(1571.397 225.164)" fill="#030404"/>
    <path id="Path_11251" data-name="Path 11251" d="M271.5,217.075l.287.081c0,.125-.09.117-.16.087s-.195-.031-.128-.168" transform="translate(1593.561 244.56)" fill="#030404"/>
    <path id="Path_11252" data-name="Path 11252" d="M261.308,215.731l.255,0-.138.136-.118-.139" transform="translate(1603.286 245.847)" fill="#030404"/>
    <path id="Path_11253" data-name="Path 11253" d="M92.842,215.734l.255,0-.135.139-.12-.136" transform="translate(1764.277 245.846)" fill="#030404"/>
    <path id="Path_11254" data-name="Path 11254" d="M60.023,248.8q0-.128,0-.255l.136.138-.139.118" transform="translate(1795.898 214.482)" fill="#030404"/>
    <path id="Path_11255" data-name="Path 11255" d="M296.649,248.546q0,.128,0,.255l-.139-.135Z" transform="translate(1569.392 214.482)" fill="#030404"/>
    <path id="Path_11256" data-name="Path 11256" d="M72.623,221.744l-.077.1.077-.1" transform="translate(1783.676 240.103)" fill="#090a0a"/>
    <path id="Path_11257" data-name="Path 11257" d="M274.179,247.058l.029.037-.029-.037" transform="translate(1591.001 215.917)" fill="#080908"/>
    <rect id="Rectangle_6756" data-name="Rectangle 6756" width="16" height="15.966" transform="translate(1853 452)" fill="none"/>
  </g>
</svg>
