<svg xmlns="http://www.w3.org/2000/svg" width="17.333" height="16" viewBox="0 0 17.333 16">
  <g id="Icon_ionic-ios-calendar" data-name="Icon ionic-ios-calendar" transform="translate(-3.375 -4.5)">
    <path id="Path_15882" data-name="Path 15882" d="M19.042,6.75H17.375v1a.334.334,0,0,1-.333.333h-.667a.334.334,0,0,1-.333-.333v-1h-8v1a.334.334,0,0,1-.333.333H7.042a.334.334,0,0,1-.333-.333v-1H5.042A1.672,1.672,0,0,0,3.375,8.417V19.75a1.672,1.672,0,0,0,1.667,1.667h14a1.672,1.672,0,0,0,1.667-1.667V8.417A1.672,1.672,0,0,0,19.042,6.75Zm.333,12.5a.836.836,0,0,1-.833.833h-13a.836.836,0,0,1-.833-.833v-7.5a.334.334,0,0,1,.333-.333h14a.334.334,0,0,1,.333.333Z" transform="translate(0 -0.917)" fill="#2c2f3a"/>
    <path id="Path_15883" data-name="Path 15883" d="M10.333,4.833A.334.334,0,0,0,10,4.5H9.333A.334.334,0,0,0,9,4.833v1h1.333Z" transform="translate(-2.292)" fill="#2c2f3a"/>
    <path id="Path_15884" data-name="Path 15884" d="M26.083,4.833A.334.334,0,0,0,25.75,4.5h-.667a.334.334,0,0,0-.333.333v1h1.333Z" transform="translate(-8.708)" fill="#2c2f3a"/>
  </g>
</svg>
